<svg xmlns="http://www.w3.org/2000/svg" width="25" height="25" fill="none"><g fill="#B1B1B1" clip-path="url(#a)"><path d="M24.785 1.25 23.75.215a.73.73 0 0 0-.821-.15l-5.563 2.456a.733.733 0 0 0-.215 1.185l4.143 4.143a.734.734 0 0 0 1.185-.214l2.456-5.564a.73.73 0 0 0-.15-.82M4.731 16.125l-4.088 4.09a2.2 2.2 0 0 0 0 3.107l1.035 1.035a2.2 2.2 0 0 0 3.108 0l4.088-4.088zm-.456 5.646a.732.732 0 1 1-1.036-1.036l2.017-2.017a.732.732 0 1 1 1.036 1.036zM11.982 17.161l-4.143-4.143a1.466 1.466 0 0 0-2.072 0 1.467 1.467 0 0 0 0 2.072l4.143 4.143c.571.57 1.5.57 2.072 0 .57-.571.57-1.5 0-2.072M19.222 7.85l-2.071-2.072-5.687 5.686a1.465 1.465 0 0 0-2.072 0l-.518.518 4.144 4.143.518-.518c.572-.572.572-1.499 0-2.071zM23.715 17.498c-1.19-1.19-2.62-1.445-4.26-1.152l-3.33-3.329-.794.795a2.93 2.93 0 0 1-.76 2.831l-.517.517 2.292 2.291c-.232 1.293-.21 2.39.593 3.58.927 1.372 2.549 2.153 4.248 1.919a.747.747 0 0 0 .426-1.268l-1.007-1.006v-2.071h2.073l1.002 1.002a.747.747 0 0 0 1.268-.43 4.38 4.38 0 0 0-1.234-3.68M8.644 5.532c.29-1.623.056-3.051-1.151-4.259A4.34 4.34 0 0 0 4.399 0q-.296 0-.586.038a.747.747 0 0 0-.43 1.27l1.012 1v2.086H2.314L1.31 3.376a.747.747 0 0 0-1.269.427A4.39 4.39 0 0 0 1.96 8.05c1.194.804 2.297.824 3.58.593l2.301 2.304.517-.517a2.92 2.92 0 0 1 2.831-.76l.795-.794z"/></g><defs><clipPath id="a"><path fill="#fff" d="M0 0h25v25H0z"/></clipPath></defs></svg>