<svg xmlns="http://www.w3.org/2000/svg" width="25" height="25" fill="none"><g fill="#B1B1B1" clip-path="url(#a)"><path d="M12.322 12.043c1.654 0 3.087-.594 4.257-1.764 1.171-1.171 1.764-2.603 1.764-4.258s-.593-3.086-1.764-4.257C15.41.594 13.976 0 12.322 0c-1.655 0-3.087.593-4.258 1.764C6.894 2.934 6.3 4.367 6.3 6.02c0 1.655.594 3.087 1.765 4.258s2.603 1.764 4.257 1.764M22.858 19.224a15 15 0 0 0-.203-1.58c-.101-.565-.232-1.1-.388-1.588a8 8 0 0 0-.653-1.482 5.6 5.6 0 0 0-.985-1.283 4.3 4.3 0 0 0-1.414-.888 4.9 4.9 0 0 0-1.805-.327c-.256 0-.503.105-.98.415-.293.191-.636.413-1.019.657-.327.21-.77.405-1.319.582a5.2 5.2 0 0 1-1.613.26 5.2 5.2 0 0 1-1.614-.26c-.547-.177-.99-.373-1.318-.581q-.572-.366-1.02-.658c-.476-.31-.723-.415-.978-.415-.65 0-1.258.11-1.806.327a4.3 4.3 0 0 0-1.414.889 5.6 5.6 0 0 0-.984 1.283 8 8 0 0 0-.653 1.481 12.5 12.5 0 0 0-.389 1.588c-.1.56-.168 1.092-.202 1.58-.033.479-.05.975-.05 1.477 0 1.305.415 2.361 1.233 3.14.808.769 1.877 1.16 3.177 1.16h12.037c1.3 0 2.37-.39 3.177-1.16.819-.778 1.233-1.835 1.233-3.14 0-.504-.017-1.001-.05-1.477"/></g><defs><clipPath id="a"><path fill="#fff" d="M0 0h25v25H0z"/></clipPath></defs></svg>