<svg xmlns="http://www.w3.org/2000/svg" width="26" height="26" fill="none"><g fill="#B1B1B1" clip-path="url(#a)"><path d="M22.96 7.163v-.355a2.97 2.97 0 0 0-2.964-2.965H2.966A2.97 2.97 0 0 0 0 6.807v.355zM13.565 16.702c0-1.538.495-3 1.408-4.205H0v4.136a2.97 2.97 0 0 0 2.965 2.965h11.226a7 7 0 0 1-.626-2.896m-2.085-.899H8.921V14.28h2.56zM3.415 14.28h3.983v1.523H3.415zM16.555 10.973a6.93 6.93 0 0 1 3.99-1.25 7 7 0 0 1 2.416.428V8.687H0v2.286zM26 16.702a5.456 5.456 0 1 0-10.911 0 5.456 5.456 0 0 0 10.911 0m-4.72 2.914v.62h-1.524v-.615c-.46-.156-.837-.43-1.205-.7l.9-1.23c.494.362.747.536 1.093.536.196 0 .355-.093.415-.243.072-.182-.03-.35-.273-.448 0 0-1.089-.364-1.592-.877-.422-.43-.557-1.037-.422-1.614a1.78 1.78 0 0 1 1.084-1.263v-.615h1.524v.59c.387.107.714.266.902.368l-.726 1.339c-.482-.262-.926-.34-1.098-.281-.168.057-.193.166-.203.207-.013.059-.02.148.073.252.09.1 1.032.483 1.032.483 1.018.414 1.497 1.454 1.115 2.42a1.9 1.9 0 0 1-1.095 1.071"/></g><defs><clipPath id="a"><path fill="#fff" d="M0 0h26v26H0z"/></clipPath></defs></svg>