<svg xmlns="http://www.w3.org/2000/svg" width="25" height="25" fill="none"><g fill="#B1B1B1" clip-path="url(#a)"><path d="M3.92 10.227H1.138c-.628 0-1.137.51-1.137 1.137v12.5C0 24.49.509 25 1.137 25H3.92c.627 0 1.136-.509 1.136-1.136v-12.5c0-.628-.509-1.137-1.136-1.137M10.569 13.636H7.785c-.629 0-1.137.509-1.137 1.136v9.09c0 .629.508 1.137 1.137 1.137h2.784c.627 0 1.136-.509 1.136-1.136v-9.09c0-.628-.509-1.137-1.136-1.137M17.215 13.636h-2.784c-.627 0-1.136.509-1.136 1.136v9.09c0 .629.509 1.137 1.136 1.137h2.784c.629 0 1.137-.509 1.137-1.136v-9.09c0-.628-.508-1.137-1.137-1.137M23.863 10.227H21.08c-.627 0-1.136.51-1.136 1.137v12.5c0 .627.509 1.136 1.136 1.136h2.784c.628 0 1.137-.51 1.137-1.136v-12.5c0-.628-.509-1.137-1.137-1.137M12.831 6.846V8.89c.62-.04 1.272-.33 1.272-1.012 0-.703-.715-.91-1.272-1.033M11.052 4.397c0 .517.385.816 1.16.972v-1.85c-.705.02-1.16.434-1.16.878"/><path d="M12.5 0a6.257 6.257 0 0 0-6.25 6.25 6.257 6.257 0 0 0 6.25 6.249 6.257 6.257 0 0 0 6.25-6.249A6.257 6.257 0 0 0 12.5 0m.331 9.946v.64c0 .176-.135.352-.311.352-.175 0-.308-.176-.308-.352v-.64c-1.747-.042-2.615-1.086-2.615-1.902 0-.413.25-.65.64-.65 1.157 0 .257 1.425 1.975 1.497v-2.16c-1.532-.278-2.46-.95-2.46-2.096 0-1.405 1.168-2.13 2.46-2.17v-.551c0-.176.133-.352.308-.352.176 0 .311.176.311.352v.55c.806.022 2.46.527 2.46 1.54 0 .403-.302.64-.653.64-.673 0-.663-1.104-1.807-1.125v1.963c1.364.29 2.572.692 2.572 2.284 0 1.384-1.033 2.086-2.572 2.18"/></g><defs><clipPath id="a"><path fill="#fff" d="M0 0h25v25H0z"/></clipPath></defs></svg>