<svg xmlns="http://www.w3.org/2000/svg" width="25" height="25" fill="none"><g fill="#B1B1B1" clip-path="url(#a)"><path d="M14.492 15.337c4.195 0 7.608-3.44 7.608-7.668C22.1 3.44 18.687 0 14.492 0S6.885 3.44 6.885 7.669s3.412 7.668 7.607 7.668m-2.444-5.275a.73.73 0 0 1 1.013-.212c.493.322.679.352 1.33.347.634-.004 1.003-.477 1.076-.915.036-.213.05-.733-.595-.961-.756-.267-1.53-.573-2.068-.995-.539-.422-.785-1.151-.644-1.902.154-.815.722-1.463 1.483-1.692l.02-.006V3.45a.732.732 0 1 1 1.464 0v.231c.497.119.845.346.986.452a.732.732 0 1 1-.877 1.172c-.15-.112-.565-.353-1.171-.17-.354.107-.446.456-.466.56-.039.206.005.399.108.48.373.293 1.045.552 1.653.767 1.12.396 1.744 1.434 1.55 2.584a2.6 2.6 0 0 1-.798 1.473c-.286.263-.62.45-.985.558v.332a.732.732 0 0 1-1.464 0v-.259c-.473-.057-.87-.205-1.404-.554a.73.73 0 0 1-.211-1.013M2.774 17.797H1.105a.73.73 0 0 0-.732.732v5.738c0 .404.328.732.732.732h1.67zM24.412 17.746a3.523 3.523 0 0 0-4.976 0l-2.193 2.192-.899.9a1.94 1.94 0 0 1-1.37.566h-4.37a.747.747 0 0 1-.752-.697.733.733 0 0 1 .732-.769h4.442c.893 0 1.668-.636 1.821-1.515q.053-.303.054-.622a.733.733 0 0 0-.733-.734h-2.434c-.796 0-1.56-.36-2.368-.743-.849-.4-1.726-.815-2.751-.883a7.8 7.8 0 0 0-2.673.292A2.37 2.37 0 0 0 4.248 17.8h-.01v7.197L16.85 25c.867 0 1.683-.338 2.296-.95l5.267-5.268a.733.733 0 0 0 0-1.036"/></g><defs><clipPath id="a"><path fill="#fff" d="M0 0h25v25H0z"/></clipPath></defs></svg>