<svg xmlns="http://www.w3.org/2000/svg" width="30" height="30" fill="none"><circle cx="15" cy="15" r="15" fill="#1814F3"/><g clip-path="url(#a)"><path fill="#fff" d="m22.587 11.163-1.35 1.35a.35.35 0 0 1-.499 0l-3.251-3.251a.35.35 0 0 1 0-.498l1.35-1.35a1.41 1.41 0 0 1 1.99 0l1.76 1.76c.55.548.55 1.438 0 1.99m-6.26-1.24-7.694 7.694-.621 3.56a.704.704 0 0 0 .814.814l3.56-.624 7.693-7.693a.35.35 0 0 0 0-.498l-3.252-3.252a.355.355 0 0 0-.5 0m-4.691 7.035a.41.41 0 0 1 0-.58l4.512-4.512a.41.41 0 0 1 .58 0 .41.41 0 0 1 0 .58l-4.512 4.512a.41.41 0 0 1-.58 0m-1.058 2.464h1.407v1.063l-1.89.332-.911-.912.33-1.89h1.064z"/></g><defs><clipPath id="a"><path fill="#fff" d="M8 7h15v15H8z"/></clipPath></defs></svg>