<svg xmlns="http://www.w3.org/2000/svg" width="50" height="50" fill="none"><circle cx="25" cy="25" r="25" fill="#F5F7FA"/><path fill="#FE5C73" d="M24.442 37a3.91 3.91 0 0 1-3.906-3.906.782.782 0 0 1 1.562 0 2.347 2.347 0 0 0 2.344 2.343 2.347 2.347 0 0 0 2.344-2.343.782.782 0 0 1 1.562 0A3.91 3.91 0 0 1 24.442 37"/><path fill="#FE5C73" d="M33.036 33.875H15.848a1.825 1.825 0 0 1-1.185-3.208 1 1 0 0 1 .083-.063 7 7 0 0 0 2.404-5.281v-2.906c0-4.021 3.272-7.292 7.292-7.292.167 0 .347.003.514.031a.781.781 0 1 1-.257 1.54c-.083-.013-.175-.009-.257-.009a5.736 5.736 0 0 0-5.73 5.73v2.906a8.57 8.57 0 0 1-3.023 6.532l-.046.036a.26.26 0 0 0-.055.161c0 .142.119.26.26.26h17.188c.142 0 .26-.118.26-.26a.25.25 0 0 0-.056-.161l-.045-.036a8.57 8.57 0 0 1-3.024-6.532v-1.135a.782.782 0 0 1 1.563 0v1.135c0 2.028.876 3.949 2.407 5.284a1 1 0 0 1 .08.06 1.825 1.825 0 0 1-1.186 3.207"/><path fill="#FE5C73" d="M31.734 22.417a5.214 5.214 0 0 1-5.209-5.209A5.214 5.214 0 0 1 31.734 12a5.214 5.214 0 0 1 5.208 5.208 5.214 5.214 0 0 1-5.208 5.209m0-8.855a3.65 3.65 0 0 0-3.646 3.646 3.65 3.65 0 0 0 3.646 3.646 3.65 3.65 0 0 0 3.645-3.646 3.65 3.65 0 0 0-3.645-3.645"/></svg>