<svg xmlns="http://www.w3.org/2000/svg" width="50" height="50" fill="none"><circle cx="25" cy="25" r="25" fill="#F5F7FA"/><g fill="#718EBF" clip-path="url(#a)"><path d="M25.285 37h-1.57a2.304 2.304 0 0 1-2.301-2.301v-.531q-.811-.26-1.567-.65l-.376.375a2.3 2.3 0 0 1-3.256 0l-1.108-1.109a2.3 2.3 0 0 1 0-3.255l.376-.376a10 10 0 0 1-.65-1.567H14.3A2.304 2.304 0 0 1 12 25.285v-1.57a2.304 2.304 0 0 1 2.302-2.3h.53q.26-.812.65-1.568l-.375-.376a2.3 2.3 0 0 1 0-3.255l1.109-1.11a2.3 2.3 0 0 1 3.255 0l.376.377q.756-.391 1.567-.65V14.3A2.304 2.304 0 0 1 23.715 12h1.57a2.304 2.304 0 0 1 2.3 2.301v.531q.812.26 1.568.65l.376-.375a2.3 2.3 0 0 1 3.256 0l1.108 1.109a2.3 2.3 0 0 1 0 3.255l-.376.376q.391.756.65 1.567h.532A2.304 2.304 0 0 1 37 23.715v1.57a2.304 2.304 0 0 1-2.301 2.3h-.531q-.26.812-.65 1.568l.375.376c.912.91.887 2.37 0 3.256l-1.109 1.109a2.3 2.3 0 0 1-3.255 0l-.376-.377c-.503.26-1.028.478-1.567.65v.532A2.304 2.304 0 0 1 25.285 37m-5.193-5.021c.7.414 1.452.726 2.238.929.323.083.549.375.549.71v1.08c0 .462.375.837.836.837h1.57a.84.84 0 0 0 .836-.836v-1.082c0-.334.226-.626.55-.709a8.6 8.6 0 0 0 2.237-.929.73.73 0 0 1 .891.113l.766.766c.33.33.86.323 1.183 0l1.11-1.11a.837.837 0 0 0 0-1.183l-.766-.766a.73.73 0 0 1-.113-.89c.414-.7.726-1.453.929-2.238a.73.73 0 0 1 .71-.55h1.08a.84.84 0 0 0 .837-.836v-1.57a.837.837 0 0 0-.836-.836h-1.082a.73.73 0 0 1-.709-.55 8.6 8.6 0 0 0-.929-2.237.73.73 0 0 1 .113-.891l.766-.766a.836.836 0 0 0 0-1.183l-1.11-1.11a.836.836 0 0 0-1.183 0l-.766.767a.73.73 0 0 1-.89.112 8.6 8.6 0 0 0-2.238-.929.73.73 0 0 1-.55-.709v-1.082a.84.84 0 0 0-.836-.836h-1.57a.84.84 0 0 0-.836.836v1.082a.73.73 0 0 1-.55.709 8.6 8.6 0 0 0-2.237.929.73.73 0 0 1-.891-.113l-.766-.766a.836.836 0 0 0-1.183 0l-1.11 1.11a.837.837 0 0 0 0 1.183l.766.766a.73.73 0 0 1 .113.89 8.6 8.6 0 0 0-.929 2.238.73.73 0 0 1-.71.55h-1.08a.84.84 0 0 0-.837.836v1.57c0 .46.375.836.837.836h1.08c.335 0 .627.226.71.55.203.785.515 1.538.929 2.237a.73.73 0 0 1-.113.891l-.766.766a.836.836 0 0 0 0 1.183l1.11 1.11a.836.836 0 0 0 1.183 0l.766-.766a.736.736 0 0 1 .89-.113"/><path d="M24.5 29.94c-3 0-5.44-2.44-5.44-5.44s2.44-5.44 5.44-5.44 5.44 2.44 5.44 5.44-2.44 5.44-5.44 5.44m0-9.415a3.98 3.98 0 0 0-3.975 3.975 3.98 3.98 0 0 0 3.975 3.975 3.98 3.98 0 0 0 3.975-3.975 3.98 3.98 0 0 0-3.975-3.975"/></g><defs><clipPath id="a"><path fill="#fff" d="M12 12h25v25H12z"/></clipPath></defs></svg>